<?xml version="1.0" standalone="no"?>
<!DOCTYPE svg PUBLIC "-//W3C//DTD SVG 20010904//EN"
 "http://www.w3.org/TR/2001/REC-SVG-20010904/DTD/svg10.dtd">
<svg version="1.0" xmlns="http://www.w3.org/2000/svg"
 width="1080.000000pt" height="1080.000000pt" viewBox="0 0 1080.000000 1080.000000"
 preserveAspectRatio="xMidYMid meet">
<metadata>
Created by potrace 1.14, written by Peter Selinger 2001-2017
</metadata>
<g transform="translate(0.000000,1080.000000) scale(0.100000,-0.100000)"
fill="#000000" stroke="none">
<path d="M4739 9126 c-2 -2 -44 -7 -94 -10 -49 -4 -103 -8 -120 -11 -16 -2
-48 -7 -70 -9 -304 -36 -713 -152 -1010 -286 -22 -10 -42 -18 -45 -17 -5 0
-77 -38 -260 -136 -88 -48 -199 -116 -218 -134 -7 -7 -19 -13 -27 -13 -7 0
-15 -4 -17 -8 -1 -5 -25 -23 -53 -42 -66 -44 -240 -179 -287 -221 -20 -19 -64
-56 -97 -84 -33 -27 -60 -56 -60 -62 -1 -7 -5 -13 -10 -13 -17 0 -202 -197
-313 -334 -10 -11 -21 -26 -26 -31 -125 -151 -338 -491 -426 -679 -70 -150
-92 -199 -101 -226 -2 -6 -23 -58 -32 -80 -3 -8 -7 -19 -9 -25 -2 -5 -17 -48
-33 -95 -36 -99 -75 -235 -106 -370 -35 -150 -70 -373 -82 -520 -15 -183 -8
-634 12 -751 2 -13 6 -46 9 -74 10 -84 13 -105 45 -260 16 -83 37 -172 45
-200 9 -27 25 -84 36 -125 12 -41 25 -84 30 -95 5 -11 19 -49 31 -85 51 -150
151 -369 269 -585 44 -81 190 -301 266 -401 65 -87 71 -94 114 -142 15 -17 49
-57 76 -88 126 -145 306 -314 484 -453 36 -28 70 -55 75 -59 6 -5 60 -42 120
-83 61 -41 112 -77 113 -81 2 -5 7 -8 12 -8 4 0 39 -19 76 -42 38 -23 116 -65
173 -95 57 -29 109 -57 115 -61 6 -5 20 -12 31 -15 11 -3 67 -26 125 -52 92
-41 395 -149 446 -158 11 -2 26 -7 34 -10 14 -5 146 -36 240 -56 25 -5 65 -12
90 -16 25 -3 52 -8 60 -10 8 -2 40 -7 70 -10 30 -3 62 -8 70 -10 50 -13 219
-20 455 -18 318 2 557 2 900 0 218 -1 342 4 435 18 14 2 48 6 75 10 299 37
684 144 975 272 91 40 291 141 347 174 33 21 64 35 67 32 3 -4 6 -1 6 5 0 7 7
12 15 12 8 0 15 5 15 10 0 6 4 10 9 10 13 0 195 121 199 132 2 4 10 8 18 8 8
0 14 5 14 10 0 6 5 10 11 10 6 0 16 6 23 13 7 6 25 21 40 32 16 11 33 25 40
30 6 6 36 30 66 54 94 74 401 361 386 361 -2 0 15 20 38 44 70 75 168 196 241
301 28 39 58 79 67 89 10 11 18 23 18 27 0 6 55 94 78 124 4 6 14 24 22 40 8
17 17 32 20 35 3 3 14 22 25 43 11 20 24 37 29 37 5 0 7 3 4 6 -4 3 19 56 51
117 163 322 274 663 341 1044 12 71 16 102 36 283 5 41 9 188 9 325 0 221 -4
322 -19 445 -3 19 -7 62 -11 94 -3 33 -8 63 -10 66 -2 4 -7 29 -11 56 -3 27
-13 78 -21 114 -25 114 -32 145 -37 166 -32 153 -209 634 -241 656 -5 4 -7 8
-3 8 13 0 -149 300 -221 410 -20 31 -40 63 -46 72 -5 9 -37 53 -70 98 -33 46
-64 90 -70 98 -5 8 -17 23 -25 32 -8 9 -24 28 -35 42 -102 131 -263 300 -410
431 -22 20 -56 51 -75 68 -19 18 -60 50 -90 73 -30 22 -57 44 -60 47 -7 8
-177 129 -230 163 -25 16 -64 42 -87 58 -23 15 -45 28 -50 28 -5 0 -24 11 -44
24 -105 71 -409 211 -624 286 -49 17 -101 35 -115 40 -38 14 -177 50 -325 85
-11 3 -58 12 -105 20 -47 8 -94 17 -105 19 -12 2 -48 7 -80 11 -33 4 -69 9
-80 11 -103 19 -571 25 -745 9 -101 -9 -180 -9 -245 1 -44 6 -550 15 -556 10z"/>
</g>
</svg>
